<?xml version="1.0" encoding="UTF-8" standalone="no"?>
<!DOCTYPE svg PUBLIC "-//W3C//DTD SVG 1.1//EN" "http://www.w3.org/Graphics/SVG/1.1/DTD/svg11.dtd">
<svg width="100%" height="100%" viewBox="0 0 270 115" version="1.1" xmlns="http://www.w3.org/2000/svg" xmlns:xlink="http://www.w3.org/1999/xlink" xml:space="preserve" xmlns:serif="http://www.serif.com/" style="fill-rule:evenodd;clip-rule:evenodd;stroke-linejoin:round;stroke-miterlimit:1.41421;">
    <g id="Layer-1" serif:id="Layer 1">
        <g transform="matrix(1,0,0,1,53.5258,23.6599)">
            <path d="M0,-21.214C0.239,-20.456 0.24,-20.457 0.479,-19.699C0.717,-18.941 0.706,-18.937 0.945,-18.18C1.184,-17.422 1.194,-17.425 1.433,-16.668C1.671,-15.91 1.657,-15.905 1.896,-15.147C2.134,-14.389 2.139,-14.391 2.377,-13.633C2.616,-12.875 2.626,-12.879 2.865,-12.12C3.104,-11.363 3.108,-11.364 3.347,-10.607C3.586,-9.849 3.565,-9.842 3.804,-9.085C4.043,-8.326 4.078,-8.338 4.317,-7.58C4.556,-6.822 4.525,-6.812 4.764,-6.054C5.003,-5.297 5.015,-5.3 5.253,-4.542C5.492,-3.784 5.479,-3.78 5.718,-3.022C5.957,-2.264 5.968,-2.268 6.207,-1.51C6.446,-0.752 6.462,-0.757 6.701,0.001C6.939,0.76 6.947,0.757 7.186,1.515C7.27,1.784 7.505,1.987 7.787,1.987L7.781,1.987C8.541,1.987 8.541,1.983 9.3,1.983C10.06,1.983 10.06,1.967 10.819,1.967C11.579,1.967 11.579,1.981 12.338,1.981C12.62,1.981 12.852,1.783 12.937,1.515C13.175,0.757 13.197,0.764 13.436,0.006C13.674,-0.752 13.652,-0.759 13.891,-1.517C14.13,-2.274 14.155,-2.266 14.394,-3.024C14.632,-3.782 14.65,-3.776 14.889,-4.534C15.127,-5.292 15.084,-5.305 15.323,-6.063C15.562,-6.821 15.576,-6.816 15.815,-7.574C16.054,-8.332 16.079,-8.324 16.317,-9.082C16.556,-9.84 16.52,-9.851 16.758,-10.609C16.997,-11.366 17.012,-11.362 17.251,-12.12C17.49,-12.878 17.472,-12.884 17.71,-13.642C17.949,-14.4 17.957,-14.397 18.196,-15.155C18.435,-15.913 18.433,-15.914 18.671,-16.672C18.911,-17.43 18.935,-17.422 19.174,-18.18C19.413,-18.939 19.386,-18.947 19.625,-19.705C19.864,-20.463 19.89,-20.455 20.128,-21.213C20.367,-21.971 20.358,-21.974 20.597,-22.732C20.668,-22.956 20.501,-23.196 20.266,-23.196C19.506,-23.196 19.506,-23.16 18.746,-23.16C17.986,-23.16 17.986,-23.19 17.226,-23.19C16.466,-23.19 16.466,-23.201 15.706,-23.201C15.425,-23.201 15.186,-22.996 15.106,-22.727C14.88,-21.97 14.878,-21.971 14.653,-21.214C14.427,-20.457 14.434,-20.455 14.208,-19.698C13.982,-18.941 13.971,-18.944 13.745,-18.188C13.52,-17.431 13.531,-17.427 13.305,-16.671C13.08,-15.914 13.059,-15.92 12.833,-15.163C12.607,-14.406 12.606,-14.406 12.381,-13.649C12.155,-12.892 12.161,-12.89 11.935,-12.132C11.709,-11.376 11.705,-11.377 11.479,-10.62C11.253,-9.863 11.274,-9.857 11.048,-9.1C10.823,-8.342 10.802,-8.348 10.573,-7.592C10.343,-6.836 10.344,-6.836 10.119,-6.078C10.099,-6.011 10.012,-6.007 9.992,-6.074C9.767,-6.831 9.777,-6.835 9.551,-7.591C9.326,-8.348 9.34,-8.352 9.114,-9.11C8.889,-9.866 8.887,-9.866 8.661,-10.622C8.435,-11.379 8.431,-11.378 8.206,-12.135C7.98,-12.892 7.984,-12.893 7.758,-13.65C7.532,-14.406 7.507,-14.399 7.281,-15.156C7.056,-15.913 7.076,-15.92 6.85,-16.677C6.625,-17.434 6.598,-17.426 6.372,-18.183C6.146,-18.94 6.137,-18.937 5.912,-19.694C5.686,-20.452 5.694,-20.454 5.468,-21.211C5.242,-21.968 5.232,-21.965 5.007,-22.722C4.927,-22.992 4.7,-23.167 4.419,-23.167C3.66,-23.167 3.66,-23.173 2.899,-23.173C2.139,-23.173 2.139,-23.193 1.379,-23.193L-0.141,-23.193C-0.34,-23.193 -0.492,-23.023 -0.492,-22.835C-0.492,-22.8 -0.487,-22.765 -0.476,-22.73C-0.237,-21.972 -0.239,-21.972 0,-21.214" style="fill:rgb(25,86,51);fill-rule:nonzero;"/>
        </g>
        <g transform="matrix(1,0,0,1,129.045,51.6269)">
            <path d="M0,30.066C-0.147,34.228 -0.345,36.308 -0.591,36.308C-0.838,36.308 -1.034,34.228 -1.182,30.066C-1.33,25.905 -1.403,20.869 -1.403,14.96C-1.403,9.049 -1.33,4.002 -1.182,-0.184C-1.034,-4.37 -0.838,-6.463 -0.591,-6.463C-0.345,-6.463 -0.147,-4.37 0,-0.184C0.148,4.002 0.222,9.049 0.222,14.96C0.222,20.869 0.148,25.905 0,30.066M9.381,-12.669C8.839,-12.619 8.076,-12.606 7.091,-12.632C6.106,-12.656 5.393,-12.669 4.949,-12.669L-3.25,-12.595L-11.671,-12.669L-17.063,-12.669C-17.458,-12.669 -17.753,-12.606 -17.95,-12.484C-18.147,-12.36 -18.245,-12.102 -18.245,-11.708L-18.245,-7.867C-18.295,-6.734 -18.319,-5.035 -18.319,-2.77C-18.319,-2.327 -18.295,-2.006 -18.245,-1.809C-18.097,-1.366 -17.875,-1.267 -17.581,-1.514C-16.596,-2.449 -15.475,-3.237 -14.219,-3.878C-12.963,-4.517 -11.72,-4.863 -10.489,-4.912C-9.702,-4.961 -8.446,-4.986 -6.722,-4.986C-6.328,-4.986 -6.083,-4.765 -5.983,-4.321L-5.983,4.322L-5.909,9.789L-5.983,12.817C-6.033,14.048 -6.045,15.083 -6.02,15.92C-5.996,16.757 -5.983,17.447 -5.983,17.988L-5.983,20.721C-5.983,24.12 -6.008,26.705 -6.057,28.478C-6.057,30.941 -6.156,33.231 -6.353,35.347C-6.55,37.465 -7.412,39.362 -8.938,41.036C-9.48,41.676 -9.75,42.07 -9.75,42.217C-9.75,42.416 -9.628,42.539 -9.381,42.587C-9.135,42.636 -8.716,42.661 -8.125,42.661L-5.17,42.735L0.739,42.661L6.87,42.735C7.361,42.735 7.682,42.711 7.831,42.661C8.273,42.513 8.372,42.292 8.125,41.996C7.189,41.011 6.414,39.904 5.799,38.671C5.183,37.441 4.85,36.21 4.802,34.978C4.702,31.039 4.654,27.961 4.654,25.745L4.58,20.204L4.654,17.175C4.702,15.994 4.728,14.295 4.728,12.079L4.654,4.322C4.654,3.14 4.678,2.229 4.728,1.588C4.728,-0.923 4.752,-2.892 4.802,-4.321C4.802,-4.517 4.863,-4.678 4.986,-4.801C5.108,-4.924 5.269,-4.986 5.466,-4.986C6.796,-4.986 8.174,-4.912 9.603,-4.765C11.572,-4.567 13.468,-3.656 15.291,-2.031C15.93,-1.538 16.325,-1.292 16.472,-1.292C16.668,-1.292 16.792,-1.403 16.842,-1.625C16.89,-1.847 16.916,-2.253 16.916,-2.844L16.99,-5.799L16.916,-11.56C16.916,-12.004 16.83,-12.299 16.658,-12.447C16.484,-12.595 16.177,-12.669 15.734,-12.669L9.381,-12.669Z" style="fill:rgb(25,86,51);fill-rule:nonzero;"/>
        </g>
        <g transform="matrix(1,0,0,1,122.324,4.1813)">
            <path d="M0,17.748C0,18.555 -0.029,18.555 -0.029,19.362C-0.029,20.169 0.015,20.169 0.015,20.976C0.015,21.238 0.203,21.461 0.465,21.461C1.173,21.461 1.173,21.457 1.88,21.457C2.588,21.457 2.588,21.448 3.296,21.448C4.004,21.448 4.004,21.454 4.711,21.454C4.973,21.454 5.18,21.239 5.18,20.977C5.18,20.2 5.172,20.2 5.172,19.424C5.172,18.646 5.192,18.646 5.192,17.87C5.192,17.093 5.182,17.093 5.182,16.316C5.182,15.539 5.184,15.539 5.184,14.762C5.184,13.985 5.196,13.985 5.196,13.209C5.196,12.432 5.209,12.432 5.209,11.655C5.209,10.878 5.181,10.878 5.181,10.101C5.181,9.324 5.177,9.324 5.177,8.547C5.177,8.5 5.227,8.498 5.243,8.541C5.508,9.274 5.532,9.266 5.797,9.999C6.062,10.733 6.051,10.737 6.317,11.471C6.582,12.204 6.574,12.207 6.839,12.94C7.104,13.674 7.145,13.659 7.41,14.393C7.676,15.126 7.638,15.14 7.903,15.874C8.168,16.607 8.192,16.599 8.458,17.332C8.723,18.066 8.693,18.077 8.958,18.811C9.055,19.078 9.332,19.271 9.616,19.271C10.468,19.271 10.468,19.248 11.321,19.248C12.174,19.248 12.174,19.228 13.026,19.228C13.31,19.228 13.561,19.068 13.658,18.801C13.923,18.068 13.93,18.07 14.195,17.336C14.46,16.603 14.449,16.599 14.713,15.865C14.979,15.131 15.001,15.139 15.266,14.406C15.532,13.672 15.512,13.665 15.778,12.932C16.043,12.198 16.059,12.204 16.325,11.47C16.59,10.736 16.586,10.735 16.852,10.001C17.117,9.267 17.118,9.267 17.383,8.533C17.399,8.489 17.475,8.498 17.475,8.545L17.475,10.098C17.475,10.875 17.469,10.875 17.469,11.652C17.469,12.429 17.458,12.429 17.458,13.206C17.458,13.982 17.48,13.982 17.48,14.759C17.48,15.536 17.471,15.536 17.471,16.313C17.471,17.09 17.472,17.09 17.472,17.867C17.472,18.644 17.442,18.644 17.442,19.421C17.442,20.198 17.432,20.198 17.432,20.975C17.432,21.237 17.668,21.456 17.93,21.456C18.638,21.456 18.638,21.47 19.346,21.47C20.053,21.47 20.053,21.445 20.761,21.445C21.469,21.445 21.469,21.471 22.177,21.471L22.181,21.473C22.443,21.473 22.631,21.239 22.631,20.977C22.631,20.17 22.669,20.17 22.669,19.363C22.669,18.556 22.666,18.556 22.666,17.749C22.666,16.942 22.669,16.942 22.669,16.136C22.669,15.329 22.662,15.329 22.662,14.522C22.662,13.715 22.651,13.715 22.651,12.908C22.651,12.101 22.632,12.101 22.632,11.294C22.632,10.487 22.651,10.487 22.651,9.681C22.651,8.873 22.64,8.873 22.64,8.067C22.64,7.26 22.658,7.26 22.658,6.453C22.658,5.646 22.652,5.646 22.652,4.839C22.652,4.032 22.678,4.032 22.678,3.225C22.678,2.418 22.64,2.418 22.64,1.611C22.64,0.804 22.648,0.804 22.648,-0.003C22.648,-0.811 22.634,-0.811 22.634,-1.618L22.634,-3.232C22.634,-3.494 22.443,-3.697 22.181,-3.697C21.359,-3.697 21.359,-3.725 20.536,-3.725C19.713,-3.725 19.713,-3.687 18.891,-3.687C18.069,-3.687 18.069,-3.706 17.247,-3.706C16.962,-3.706 16.711,-3.526 16.615,-3.259C16.354,-2.544 16.374,-2.538 16.113,-1.823C15.853,-1.108 15.832,-1.116 15.572,-0.402C15.311,0.313 15.313,0.314 15.052,1.028C14.792,1.743 14.808,1.748 14.547,2.463C14.288,3.178 14.277,3.174 14.017,3.889C13.756,4.604 13.73,4.595 13.47,5.309C13.209,6.024 13.234,6.032 12.974,6.747C12.713,7.462 12.688,7.453 12.428,8.167C12.167,8.882 12.176,8.886 11.918,9.601C11.661,10.317 11.672,10.322 11.412,11.037C11.385,11.112 11.262,11.112 11.234,11.037C10.974,10.322 10.979,10.32 10.719,9.605C10.459,8.89 10.469,8.887 10.208,8.172C9.948,7.457 9.953,7.456 9.692,6.741C9.432,6.027 9.418,6.032 9.158,5.317C8.898,4.602 8.904,4.6 8.644,3.885C8.383,3.17 8.37,3.175 8.11,2.46C7.85,1.746 7.848,1.746 7.587,1.032C7.328,0.317 7.318,0.32 7.058,-0.395C6.798,-1.109 6.815,-1.116 6.555,-1.831C6.295,-2.545 6.286,-2.542 6.025,-3.257C5.928,-3.524 5.684,-3.704 5.4,-3.704C4.578,-3.704 4.578,-3.708 3.756,-3.708C2.933,-3.708 2.933,-3.686 2.111,-3.686C1.289,-3.686 1.289,-3.709 0.466,-3.709C0.204,-3.709 -0.017,-3.494 -0.017,-3.232C-0.017,-2.425 -0.029,-2.425 -0.029,-1.619C-0.029,-0.812 -0.006,-0.812 -0.006,-0.005C-0.006,0.802 0.009,0.802 0.009,1.609C0.009,2.415 0.01,2.415 0.01,3.223C0.01,4.029 -0.01,4.029 -0.01,4.836C-0.01,5.643 -0.026,5.643 -0.026,6.45C-0.026,7.257 -0.01,7.257 -0.01,8.063C-0.01,8.871 -0.021,8.871 -0.021,9.678C-0.021,10.484 -0.024,10.484 -0.024,11.291C-0.024,12.099 -0.025,12.099 -0.025,12.906C-0.025,13.713 0.007,13.713 0.007,14.519C0.007,15.327 0.001,15.327 0.001,16.134C0.001,16.941 0,16.941 0,17.748" style="fill:rgb(25,86,51);fill-rule:nonzero;"/>
        </g>
        <g transform="matrix(1,0,0,1,216.135,82.2473)">
            <path d="M0,-31.174C0.296,-30.041 0.443,-28.613 0.443,-26.89C0.443,-26.151 0.394,-25.141 0.296,-23.861C0.196,-22.186 -0.197,-20.906 -0.887,-20.019C-1.725,-19.034 -2.537,-18.406 -3.324,-18.136C-4.112,-17.865 -5.491,-17.68 -7.46,-17.582L-10.342,-17.582L-11.08,-17.582C-11.475,-17.582 -11.721,-17.803 -11.818,-18.247L-11.818,-23.344L-11.818,-27.554C-11.771,-28.244 -11.745,-29.278 -11.745,-30.657L-11.745,-33.317L-11.745,-34.646C-11.745,-35.04 -11.696,-35.286 -11.597,-35.385C-11.352,-35.581 -11.056,-35.68 -10.711,-35.68C-10.169,-35.729 -9.356,-35.754 -8.273,-35.754C-6.845,-35.754 -5.565,-35.655 -4.432,-35.459C-3.3,-35.261 -2.363,-34.794 -1.625,-34.055C-0.788,-33.267 -0.247,-32.306 0,-31.174M4.912,3.065C5.43,4.814 5.589,5.688 5.393,5.688C5.146,5.688 4.604,4.864 3.768,3.213C2.93,1.564 2.068,-0.394 1.182,-2.66C-0.738,-7.436 -1.699,-10.342 -1.699,-11.377C-1.699,-12.016 -1.256,-11.499 -0.369,-9.825C0.518,-8.15 1.526,-5.959 2.659,-3.251C3.644,-0.788 4.396,1.318 4.912,3.065M3.103,-17.841C3.398,-18.406 3.644,-18.985 3.841,-19.577C4.235,-20.561 4.506,-21.595 4.653,-22.679C4.802,-23.27 4.875,-23.885 4.875,-24.526C4.924,-25.117 4.949,-26.003 4.949,-27.185C4.949,-28.76 4.899,-29.893 4.802,-30.583C4.653,-31.814 4.433,-32.873 4.137,-33.759C3.989,-34.351 3.779,-34.979 3.509,-35.643C3.237,-36.308 3.151,-36.641 3.25,-36.641C3.398,-36.641 3.62,-36.467 3.915,-36.124C4.506,-35.385 4.949,-34.72 5.245,-34.129C5.736,-33.193 6.081,-32.085 6.278,-30.805C6.475,-29.771 6.574,-28.489 6.574,-26.964C6.574,-25.83 6.524,-24.993 6.427,-24.452C6.327,-23.566 6.229,-22.875 6.131,-22.383C5.836,-21.152 5.417,-20.068 4.875,-19.133C4.433,-18.296 3.964,-17.656 3.472,-17.213C3.127,-16.917 2.955,-16.769 2.955,-16.769L2.733,-16.769C2.684,-16.769 2.659,-16.794 2.659,-16.843C2.659,-16.941 2.808,-17.274 3.103,-17.841M-16.473,-0.554C-16.62,3.608 -16.817,5.688 -17.063,5.688C-17.311,5.688 -17.507,3.608 -17.654,-0.554C-17.802,-4.716 -17.876,-9.752 -17.876,-15.661C-17.876,-21.571 -17.802,-26.618 -17.654,-30.805C-17.507,-34.99 -17.311,-37.084 -17.063,-37.084C-16.817,-37.084 -16.62,-34.99 -16.473,-30.805C-16.324,-26.618 -16.251,-21.571 -16.251,-15.661C-16.251,-9.752 -16.324,-4.716 -16.473,-0.554M-6.574,-43.289L-21.791,-43.289L-25.115,-43.289C-25.805,-43.289 -26.149,-43.141 -26.149,-42.846C-26.149,-42.599 -25.879,-42.205 -25.337,-41.664C-23.811,-39.891 -22.948,-37.994 -22.751,-35.976C-22.555,-33.858 -22.455,-31.544 -22.455,-29.032C-22.407,-27.455 -22.382,-25.067 -22.382,-21.866L-22.382,-18.763C-22.432,-17.089 -22.432,-15.316 -22.382,-13.445L-22.382,-10.121L-22.455,-4.285C-22.455,-0.394 -22.481,2.487 -22.529,4.358C-22.579,5.589 -22.911,6.821 -23.526,8.051C-24.144,9.284 -24.919,10.391 -25.854,11.375C-26.149,11.671 -26.075,11.893 -25.632,12.04C-25.436,12.09 -25.115,12.115 -24.672,12.115L-24.081,12.115C-22.505,12.115 -21.323,12.09 -20.535,12.04L-17.58,12.04L-9.603,12.115C-9.159,12.115 -8.84,12.09 -8.643,12.04C-8.199,11.893 -8.125,11.671 -8.421,11.375C-9.75,9.948 -10.687,8.421 -11.228,6.796C-11.475,6.107 -11.622,5.503 -11.671,4.986C-11.721,4.469 -11.745,3.448 -11.745,1.92L-11.745,-0.075L-11.745,-5.91L-11.745,-9.308C-11.745,-9.505 -11.671,-9.652 -11.523,-9.752C-11.375,-9.849 -11.203,-9.899 -11.006,-9.899L-9.308,-9.973L-7.387,-9.973C-6.896,-9.973 -6.55,-9.8 -6.353,-9.456L-5.909,-8.2C-5.762,-7.855 -5.344,-6.871 -4.653,-5.246C-3.768,-3.275 -3.176,-1.872 -2.881,-1.035C-2.782,-0.69 -2.647,-0.296 -2.475,0.147C-2.303,0.59 -2.118,1.133 -1.92,1.773L-1.256,3.693C-1.207,3.841 -1.06,4.247 -0.812,4.911C-0.566,5.577 -0.443,6.181 -0.443,6.722C-0.443,7.117 -0.517,7.46 -0.665,7.756C-0.911,8.397 -1.244,8.963 -1.662,9.455C-2.081,9.948 -2.685,10.588 -3.472,11.375C-3.719,11.671 -3.619,11.893 -3.176,12.04C-3.028,12.09 -2.709,12.115 -2.216,12.115L13.961,12.115C14.601,12.115 15.069,12.09 15.364,12.04C15.561,11.993 15.647,11.881 15.623,11.708C15.598,11.536 15.513,11.375 15.364,11.228L14.108,9.972C13.173,9.037 12.483,8.151 12.04,7.313C11.598,6.476 10.858,4.827 9.824,2.364L9.012,0.295L7.535,-3.103L6.427,-5.688L4.062,-11.673C3.964,-11.869 3.939,-12.079 3.989,-12.3C4.037,-12.522 4.161,-12.681 4.358,-12.78L5.393,-13.371C7.509,-14.75 8.913,-16.4 9.603,-18.321C10.193,-19.994 10.601,-21.644 10.822,-23.27C11.043,-24.895 11.104,-26.864 11.007,-29.18C10.907,-32.774 9.849,-35.754 7.83,-38.118C6.648,-39.496 5.158,-40.592 3.361,-41.405C1.562,-42.218 -0.32,-42.747 -2.29,-42.993C-4.162,-43.19 -5.59,-43.289 -6.574,-43.289" style="fill:rgb(25,86,51);fill-rule:nonzero;"/>
        </g>
        <g transform="matrix(1,0,0,1,104.41,20.8078)">
            <path d="M0,-15.507C0.702,-15.507 0.702,-15.541 1.404,-15.541C2.106,-15.541 2.106,-15.526 2.808,-15.526C3.384,-15.526 3.887,-15.51 4.319,-15.444C4.921,-15.352 5.392,-15.187 5.763,-15.002C6.324,-14.722 6.672,-14.367 6.863,-13.99C7.099,-13.526 7.113,-13.032 7.113,-12.655C7.113,-11.984 7.038,-11.419 6.834,-10.967C6.601,-10.452 6.21,-10.1 5.794,-9.818C5.358,-9.523 4.87,-9.314 4.367,-9.201C3.817,-9.078 3.268,-9.041 2.808,-9.041C2.106,-9.041 2.106,-9.038 1.404,-9.038L1.404,-9.037C0.702,-9.037 0.702,-9.051 0,-9.051C-0.131,-9.051 -0.218,-9.151 -0.218,-9.282C-0.218,-10.033 -0.244,-10.033 -0.244,-10.784C-0.244,-11.535 -0.213,-11.535 -0.213,-12.286C-0.213,-13.037 -0.227,-13.037 -0.23,-13.788C-0.233,-14.539 -0.246,-14.539 -0.246,-15.29C-0.246,-15.421 -0.131,-15.507 0,-15.507M-5.51,-15.018C-5.51,-14.211 -5.527,-14.211 -5.527,-13.404C-5.527,-12.597 -5.501,-12.597 -5.501,-11.79C-5.501,-10.983 -5.486,-10.983 -5.486,-10.176C-5.486,-9.369 -5.498,-9.369 -5.498,-8.563C-5.498,-7.756 -5.518,-7.756 -5.518,-6.948C-5.518,-6.142 -5.521,-6.142 -5.521,-5.335C-5.521,-4.528 -5.49,-4.528 -5.49,-3.721C-5.49,-2.914 -5.502,-2.914 -5.502,-2.107C-5.502,-1.299 -5.503,-1.299 -5.503,-0.492C-5.503,0.315 -5.5,0.315 -5.5,1.122C-5.5,1.929 -5.489,1.929 -5.489,2.736C-5.489,3.543 -5.506,3.543 -5.506,4.35C-5.506,4.612 -5.293,4.841 -5.031,4.841C-4.311,4.841 -4.311,4.848 -3.591,4.848L-3.589,4.849C-2.869,4.849 -2.869,4.818 -2.149,4.818C-1.429,4.818 -1.429,4.821 -0.708,4.821C-0.447,4.821 -0.246,4.613 -0.246,4.351C-0.246,3.516 -0.254,3.516 -0.254,2.681C-0.254,1.846 -0.233,1.846 -0.233,1.011C-0.233,0.176 -0.246,0.176 -0.246,-0.659C-0.246,-1.494 -0.234,-1.494 -0.234,-2.329C-0.234,-3.164 -0.243,-3.164 -0.243,-3.999C-0.243,-4.13 -0.128,-4.244 0.002,-4.244C1.096,-4.244 1.096,-4.238 2.189,-4.238C2.335,-4.238 2.465,-4.154 2.537,-4.027C2.931,-3.323 2.932,-3.323 3.327,-2.62C3.721,-1.917 3.706,-1.908 4.101,-1.205C4.495,-0.501 4.509,-0.509 4.903,0.194C5.297,0.897 5.318,0.886 5.712,1.589C6.107,2.293 6.084,2.306 6.478,3.01C6.873,3.714 6.863,3.72 7.257,4.423C7.4,4.678 7.69,4.85 7.982,4.85C8.831,4.85 8.831,4.83 9.679,4.83C10.528,4.83 10.528,4.807 11.376,4.807C12.225,4.807 12.225,4.839 13.074,4.839C13.235,4.839 13.351,4.7 13.351,4.551C13.351,4.504 13.339,4.457 13.314,4.413C12.933,3.732 12.937,3.73 12.556,3.05C12.174,2.369 12.155,2.379 11.773,1.699C11.392,1.018 11.401,1.013 11.019,0.332C10.638,-0.348 10.626,-0.342 10.244,-1.023C9.862,-1.703 9.894,-1.721 9.512,-2.401C9.13,-3.082 9.116,-3.074 8.734,-3.755C8.352,-4.435 8.338,-4.427 7.957,-5.108C7.894,-5.22 7.949,-5.369 8.062,-5.429C8.58,-5.708 9.054,-6.032 9.483,-6.397C9.926,-6.773 10.318,-7.194 10.659,-7.651C11.002,-8.11 11.277,-8.613 11.509,-9.143C11.737,-9.66 11.929,-10.201 12.043,-10.776C12.152,-11.324 12.197,-11.897 12.197,-12.488C12.197,-13.027 12.185,-13.541 12.104,-14.023C12.015,-14.55 11.847,-15.036 11.669,-15.496C11.479,-15.988 11.253,-16.446 10.969,-16.861C10.678,-17.287 10.326,-17.657 9.947,-18.003C9.574,-18.344 9.171,-18.66 8.723,-18.925C8.292,-19.179 7.82,-19.378 7.328,-19.563C6.861,-19.738 6.376,-19.903 5.861,-20.016C5.374,-20.124 4.865,-20.181 4.341,-20.234C3.843,-20.283 3.333,-20.357 2.808,-20.357C2.024,-20.357 2.024,-20.328 1.241,-20.328L-0.327,-20.328C-1.111,-20.328 -1.111,-20.325 -1.896,-20.325C-2.679,-20.325 -2.679,-20.339 -3.463,-20.339C-4.247,-20.339 -4.247,-20.351 -5.031,-20.351C-5.293,-20.351 -5.499,-20.121 -5.499,-19.859C-5.499,-19.052 -5.528,-19.052 -5.528,-18.245C-5.528,-17.438 -5.512,-17.438 -5.512,-16.631C-5.512,-15.824 -5.51,-15.824 -5.51,-15.018" style="fill:rgb(25,86,51);fill-rule:nonzero;"/>
        </g>
        <g transform="matrix(-1,-0,-0,1,269.615,110.048)">
            <rect x="0" y="0" width="269.615" height="4.385" style="fill:rgb(25,86,51);"/>
        </g>
        <g transform="matrix(1,0,0,1,153.642,74.8957)">
            <path d="M0,-16.694C0.492,-19.378 1.157,-21.729 1.995,-23.749C2.635,-25.374 3.373,-26.801 4.211,-28.033C4.507,-28.427 4.776,-28.746 5.023,-28.994C5.27,-29.239 5.417,-29.338 5.467,-29.289C5.515,-29.239 5.245,-28.624 4.654,-27.443C4.063,-26.26 3.521,-24.905 3.029,-23.38C2.389,-21.36 1.858,-19.032 1.44,-16.399C1.021,-13.763 0.813,-11.043 0.813,-8.236C0.911,-4.739 1.108,-1.931 1.404,0.186C1.748,2.649 2.29,4.889 3.029,6.908C3.57,8.485 4.186,9.814 4.876,10.897C5.564,11.981 5.885,12.547 5.836,12.596C5.786,12.646 5.639,12.559 5.393,12.337C5.146,12.116 4.851,11.809 4.507,11.414C3.57,10.379 2.733,9.001 1.995,7.277C1.157,5.504 0.492,3.24 0,0.481C-0.492,-2.031 -0.738,-4.936 -0.738,-8.236C-0.738,-11.19 -0.492,-14.009 0,-16.694M7.313,-20.498C7.805,-23.059 8.691,-25.3 9.973,-27.221C10.416,-27.959 10.981,-28.513 11.672,-28.883C12.36,-29.252 13.075,-29.437 13.813,-29.437C14.946,-29.437 15.906,-29.068 16.694,-28.329C17.777,-27.443 18.615,-26.248 19.206,-24.746C19.797,-23.243 20.289,-21.507 20.684,-19.538C21.372,-16.288 21.718,-12.791 21.718,-9.048C21.718,-6.783 21.618,-4.788 21.422,-3.065C21.225,-0.848 20.953,1.134 20.609,2.882C20.265,4.63 19.747,6.292 19.059,7.869C18.468,9.15 17.729,10.232 16.843,11.119C15.956,12.005 14.946,12.449 13.813,12.449C12.928,12.449 12.151,12.202 11.486,11.709C10.822,11.218 10.194,10.528 9.604,9.641C8.126,7.277 7.129,4.594 6.611,1.589C6.095,-1.414 5.836,-4.763 5.836,-8.458C5.836,-12.249 6.327,-16.262 7.313,-20.498M24.82,-23.453C24.377,-25.028 23.811,-26.457 23.121,-27.738C22.578,-28.722 22.333,-29.239 22.383,-29.289C22.431,-29.338 22.578,-29.252 22.825,-29.03C23.071,-28.809 23.343,-28.476 23.638,-28.033C24.475,-27.048 25.237,-25.644 25.928,-23.822C26.667,-21.95 27.258,-19.697 27.701,-17.064C28.144,-14.428 28.365,-11.658 28.365,-8.753C28.365,-5.65 28.131,-2.707 27.664,0.075C27.195,2.858 26.543,5.258 25.706,7.277C24.968,9.001 24.155,10.379 23.269,11.414C22.924,11.809 22.628,12.116 22.383,12.337C22.136,12.559 21.987,12.646 21.939,12.596C21.89,12.547 22.186,11.981 22.825,10.897C23.465,9.814 24.056,8.459 24.599,6.834C25.237,4.865 25.755,2.512 26.149,-0.22C26.543,-2.954 26.74,-5.822 26.74,-8.827C26.74,-14.637 26.101,-19.513 24.82,-23.453M-1.477,10.638C-0.295,12.683 1.305,14.59 3.324,16.364C4.802,17.645 6.427,18.605 8.2,19.244C9.973,19.884 11.77,20.204 13.592,20.204C17.038,20.204 20.24,19.244 23.195,17.324C26.346,15.255 28.783,12.128 30.508,7.942C31.738,5.185 32.576,2.205 33.02,-0.997C33.266,-2.769 33.389,-4.96 33.389,-7.571C33.389,-8.605 33.339,-10.157 33.241,-12.225C32.896,-16.657 32.133,-20.424 30.951,-23.527C29.817,-26.53 28.242,-29.227 26.224,-31.616C24.204,-34.004 21.544,-35.592 18.246,-36.381C16.621,-36.725 15.191,-36.898 13.961,-36.898C11.45,-36.898 9.061,-36.368 6.796,-35.31C4.53,-34.25 2.586,-32.736 0.961,-30.766C-0.32,-29.338 -1.576,-27.245 -2.807,-24.487C-4.136,-21.433 -4.948,-18.675 -5.244,-16.214C-5.589,-13.998 -5.762,-11.584 -5.762,-8.974C-5.762,-4.69 -5.244,-0.429 -4.21,3.805C-3.57,6.317 -2.659,8.595 -1.477,10.638" style="fill:rgb(25,86,51);fill-rule:nonzero;"/>
        </g>
        <g transform="matrix(1,0,0,1,176.007,4.1794)">
            <path d="M0,17.746C0,18.553 -0.022,18.553 -0.022,19.36C-0.022,20.167 -0.002,20.167 -0.002,20.974C-0.002,21.236 0.196,21.466 0.458,21.466C1.179,21.466 1.179,21.451 1.898,21.451C2.618,21.451 2.618,21.473 3.339,21.473L3.337,21.475C4.057,21.475 4.057,21.453 4.776,21.453C5.039,21.453 5.261,21.238 5.261,20.976C5.261,20.188 5.245,20.188 5.245,19.399C5.245,18.611 5.235,18.611 5.235,17.822C5.235,17.034 5.258,17.034 5.258,16.245C5.258,15.456 5.271,15.456 5.271,14.668C5.271,13.879 5.257,13.879 5.257,13.09C5.257,12.302 5.25,12.302 5.25,11.513C5.25,10.725 5.242,10.725 5.242,9.936C5.242,9.147 5.241,9.147 5.241,8.359C5.241,7.57 5.233,7.57 5.233,6.782C5.233,6.746 5.261,6.726 5.291,6.726C5.313,6.726 5.337,6.737 5.35,6.761C5.744,7.475 5.768,7.462 6.162,8.176C6.556,8.89 6.561,8.888 6.955,9.601C7.349,10.315 7.346,10.317 7.74,11.031C8.135,11.746 8.104,11.763 8.497,12.476C8.892,13.191 8.902,13.185 9.297,13.899C9.69,14.613 9.712,14.601 10.105,15.316C10.5,16.03 10.488,16.036 10.882,16.75C11.276,17.465 11.264,17.472 11.657,18.186C12.052,18.9 12.057,18.897 12.45,19.612C12.845,20.326 12.854,20.321 13.248,21.035C13.389,21.29 13.66,21.439 13.951,21.439C14.67,21.439 14.67,21.467 15.389,21.467C16.107,21.467 16.107,21.428 16.825,21.428C17.544,21.428 17.544,21.454 18.263,21.454C18.524,21.454 18.725,21.238 18.725,20.975C18.725,20.169 18.742,20.169 18.742,19.362C18.742,18.555 18.714,18.555 18.714,17.747C18.714,16.94 18.76,16.94 18.76,16.134C18.76,15.327 18.728,15.327 18.728,14.519C18.728,13.713 18.739,13.713 18.739,12.906C18.739,12.099 18.76,12.099 18.76,11.292C18.76,10.485 18.755,10.485 18.755,9.679C18.755,8.871 18.742,8.871 18.742,8.065C18.742,7.258 18.756,7.258 18.756,6.451C18.756,5.644 18.751,5.644 18.751,4.837C18.751,4.03 18.729,4.03 18.729,3.223C18.729,2.416 18.731,2.416 18.731,1.609C18.731,0.802 18.729,0.802 18.729,-0.005C18.729,-0.813 18.752,-0.813 18.752,-1.62C18.752,-2.427 18.758,-2.427 18.758,-3.234C18.758,-3.496 18.525,-3.709 18.264,-3.709C17.544,-3.709 17.544,-3.717 16.824,-3.717C16.104,-3.717 16.104,-3.729 15.384,-3.729C14.663,-3.729 14.663,-3.725 13.943,-3.725C13.682,-3.725 13.479,-3.496 13.479,-3.234C13.479,-2.446 13.448,-2.446 13.448,-1.658C13.448,-0.869 13.492,-0.869 13.492,-0.081C13.492,0.707 13.479,0.707 13.479,1.496L13.479,3.073C13.479,3.862 13.45,3.862 13.45,4.65C13.45,5.439 13.486,5.439 13.486,6.227C13.486,7.016 13.494,7.016 13.494,7.805C13.494,8.539 13.444,8.59 13.444,9.231C13.444,10.174 13.494,10.121 13.494,10.959C13.494,10.998 13.451,11.022 13.41,11.022C13.385,11.022 13.361,11.013 13.35,10.992C12.955,10.277 12.979,10.265 12.584,9.551C12.189,8.837 12.17,8.848 11.776,8.134C11.382,7.42 11.395,7.413 11.001,6.699C10.606,5.985 10.588,5.995 10.193,5.281C9.8,4.567 9.814,4.559 9.42,3.845C9.026,3.131 9.031,3.128 8.637,2.414C8.243,1.7 8.218,1.714 7.823,1C7.429,0.286 7.433,0.284 7.039,-0.431C6.646,-1.145 6.658,-1.152 6.265,-1.866C5.87,-2.581 5.877,-2.584 5.483,-3.298C5.342,-3.554 5.062,-3.719 4.771,-3.719C4.052,-3.719 4.052,-3.691 3.333,-3.691C2.614,-3.691 2.614,-3.684 1.896,-3.684L0.458,-3.684C0.195,-3.684 0.001,-3.496 0.001,-3.234C0.001,-2.427 -0.004,-2.427 -0.004,-1.621C-0.004,-0.814 -0.032,-0.814 -0.032,-0.006C-0.032,0.8 0.009,0.8 0.009,1.607C0.009,2.414 -0.024,2.414 -0.024,3.221C-0.024,4.028 -0.026,4.028 -0.026,4.835C-0.026,5.642 0.009,5.642 0.009,6.449C0.009,7.256 -0.036,7.256 -0.036,8.062C-0.036,8.869 -0.04,8.869 -0.04,9.676C-0.04,10.483 -0.016,10.483 -0.016,11.289C-0.016,12.097 -0.01,12.097 -0.01,12.903C-0.01,13.71 0.003,13.71 0.003,14.517C0.003,15.325 -0.041,15.325 -0.041,16.132C-0.041,16.939 0,16.939 0,17.746" style="fill:rgb(25,86,51);fill-rule:nonzero;"/>
        </g>
        <g transform="matrix(1,0,0,1,78.6762,12.258)">
            <path d="M0,1.599C0,2.406 0.021,2.406 0.021,3.213C0.021,4.02 0.007,4.02 0.007,4.827C0.007,5.634 0.022,5.634 0.022,6.441C0.022,7.248 -0.015,7.248 -0.015,8.055C-0.015,8.862 -0.009,8.862 -0.009,9.669C-0.009,10.477 0,10.477 0,11.284C0,12.091 0.016,12.091 0.016,12.898C0.016,13.16 0.212,13.365 0.474,13.365C1.29,13.365 1.29,13.373 2.106,13.373C2.923,13.373 2.923,13.381 3.739,13.381C4.556,13.381 4.556,13.384 5.373,13.384C6.189,13.384 6.189,13.379 7.005,13.379C7.822,13.379 7.822,13.396 8.639,13.396L8.64,13.398C9.457,13.398 9.457,13.384 10.273,13.384C11.09,13.384 11.09,13.371 11.907,13.371C12.724,13.371 12.724,13.353 13.541,13.353C14.357,13.353 14.357,13.363 15.174,13.363C15.436,13.363 15.67,13.162 15.67,12.9C15.67,12.203 15.628,12.203 15.628,11.507C15.628,10.81 15.632,10.81 15.634,10.113C15.636,9.416 15.655,9.416 15.655,8.719C15.655,8.457 15.436,8.244 15.174,8.244C14.369,8.244 14.369,8.262 13.563,8.262C12.757,8.262 12.757,8.221 11.952,8.221C11.146,8.221 11.146,8.237 10.34,8.237C9.535,8.237 9.535,8.252 8.729,8.252C7.923,8.252 7.923,8.221 7.118,8.221C6.312,8.221 6.312,8.246 5.506,8.246C5.375,8.246 5.251,8.139 5.251,8.008C5.251,7.164 5.279,7.164 5.279,6.32C5.279,5.475 5.292,5.475 5.292,4.631C5.292,3.787 5.251,3.787 5.251,2.943C5.251,2.812 5.375,2.688 5.506,2.688C6.237,2.688 6.237,2.691 6.969,2.691C7.7,2.691 7.7,2.717 8.432,2.717C9.163,2.717 9.163,2.705 9.895,2.705C10.626,2.705 10.626,2.722 11.357,2.722C12.089,2.722 12.089,2.728 12.821,2.728C13.083,2.728 13.288,2.494 13.288,2.231C13.288,1.274 13.276,1.274 13.276,0.317C13.276,-0.64 13.297,-0.64 13.297,-1.598C13.297,-1.859 13.082,-2.081 12.82,-2.081C12.089,-2.081 12.089,-2.069 11.357,-2.069C10.626,-2.069 10.626,-2.06 9.895,-2.06C9.163,-2.06 9.163,-2.075 8.432,-2.075C7.7,-2.075 7.7,-2.084 6.969,-2.084C6.237,-2.084 6.237,-2.067 5.506,-2.067C5.375,-2.067 5.255,-2.178 5.255,-2.309C5.255,-2.994 5.263,-2.994 5.263,-3.679C5.263,-4.364 5.246,-4.364 5.246,-5.048C5.246,-5.734 5.256,-5.734 5.256,-6.419C5.256,-6.549 5.375,-6.653 5.506,-6.653C6.281,-6.653 6.281,-6.654 7.057,-6.654C7.832,-6.654 7.832,-6.676 8.607,-6.676C9.383,-6.676 9.383,-6.663 10.158,-6.663C10.934,-6.663 10.934,-6.64 11.709,-6.64C12.485,-6.64 12.485,-6.673 13.26,-6.673L14.812,-6.673C15.073,-6.673 15.3,-6.867 15.3,-7.13C15.3,-7.826 15.284,-7.826 15.284,-8.523C15.284,-9.219 15.294,-9.219 15.294,-9.917C15.294,-10.613 15.287,-10.613 15.287,-11.311C15.287,-11.572 15.073,-11.775 14.812,-11.775C14.015,-11.775 14.015,-11.784 13.219,-11.784C12.422,-11.784 12.422,-11.791 11.626,-11.791C10.83,-11.791 10.83,-11.783 10.033,-11.783C9.237,-11.783 9.237,-11.776 8.44,-11.776C7.644,-11.776 7.644,-11.775 6.847,-11.775C6.05,-11.775 6.05,-11.767 5.254,-11.767C4.486,-11.767 4.458,-11.769 3.743,-11.769C2.864,-11.769 2.892,-11.799 2.067,-11.799C1.271,-11.799 1.271,-11.788 0.474,-11.788C0.223,-11.788 -0.001,-11.562 -0.001,-11.311C-0.001,-10.505 -0.005,-10.505 -0.005,-9.697C-0.005,-8.89 -0.012,-8.89 -0.012,-8.084C-0.012,-7.277 -0.008,-7.277 -0.008,-6.47C-0.008,-5.663 -0.01,-5.663 -0.01,-4.856C-0.01,-4.049 -0.005,-4.049 -0.005,-3.242C-0.005,-2.435 0.022,-2.435 0.022,-1.628C0.022,-0.821 -0.021,-0.821 -0.021,-0.015C-0.021,0.792 0,0.792 0,1.599" style="fill:rgb(25,86,51);fill-rule:nonzero;"/>
        </g>
        <g transform="matrix(1,0,0,1,199.14,20.9765)">
            <path d="M0,-15.85C0,-15.588 0.205,-15.356 0.467,-15.356C1.167,-15.356 1.167,-15.394 1.868,-15.394C2.568,-15.394 2.568,-15.386 3.269,-15.386C3.97,-15.386 3.97,-15.357 4.671,-15.357C5.371,-15.357 5.371,-15.392 6.072,-15.392C6.202,-15.392 6.332,-15.269 6.332,-15.139C6.332,-14.334 6.306,-14.334 6.306,-13.529L6.306,-11.919C6.306,-11.114 6.292,-11.114 6.292,-10.309C6.292,-9.504 6.304,-9.504 6.304,-8.699C6.304,-7.894 6.314,-7.894 6.314,-7.09C6.314,-6.285 6.289,-6.285 6.289,-5.479C6.289,-4.675 6.318,-4.675 6.318,-3.87C6.318,-3.064 6.286,-3.064 6.286,-2.259C6.286,-1.454 6.326,-1.454 6.326,-0.649C6.326,0.156 6.288,0.156 6.288,0.961C6.288,1.766 6.306,1.766 6.306,2.571C6.306,3.376 6.288,3.376 6.288,4.181C6.288,4.443 6.521,4.673 6.783,4.673C7.503,4.673 7.503,4.679 8.223,4.679L8.222,4.68C8.942,4.68 8.942,4.678 9.662,4.678C10.383,4.678 10.383,4.643 11.103,4.643C11.365,4.643 11.595,4.444 11.595,4.182L11.595,2.572C11.595,1.767 11.552,1.767 11.552,0.962C11.552,0.157 11.564,0.157 11.564,-0.648C11.564,-1.453 11.562,-1.453 11.562,-2.258C11.562,-3.063 11.6,-3.063 11.6,-3.868C11.6,-4.672 11.571,-4.672 11.571,-5.477C11.571,-6.283 11.567,-6.283 11.567,-7.088C11.567,-7.892 11.563,-7.892 11.563,-8.698C11.563,-9.503 11.6,-9.503 11.6,-10.308C11.6,-11.113 11.568,-11.113 11.568,-11.918C11.568,-12.723 11.592,-12.723 11.592,-13.528C11.592,-14.333 11.562,-14.333 11.562,-15.138C11.562,-15.269 11.683,-15.397 11.813,-15.397C12.514,-15.397 12.514,-15.393 13.215,-15.393C13.915,-15.393 13.915,-15.399 14.615,-15.399C15.316,-15.399 15.316,-15.362 16.018,-15.362C16.718,-15.362 16.718,-15.39 17.418,-15.39C17.681,-15.39 17.882,-15.587 17.882,-15.849C17.882,-16.546 17.916,-16.546 17.916,-17.243C17.916,-17.94 17.899,-17.94 17.899,-18.637C17.899,-19.334 17.912,-19.334 17.912,-20.031C17.912,-20.293 17.681,-20.513 17.419,-20.513C16.648,-20.513 16.648,-20.53 15.878,-20.53C15.107,-20.53 15.107,-20.526 14.337,-20.526C13.566,-20.526 13.566,-20.503 12.796,-20.503C12.025,-20.503 12.025,-20.529 11.256,-20.529C10.485,-20.529 10.485,-20.521 9.715,-20.521C8.944,-20.521 8.944,-20.518 8.174,-20.518C7.403,-20.518 7.403,-20.515 6.632,-20.515C5.861,-20.515 5.861,-20.505 5.091,-20.505C4.32,-20.505 4.32,-20.5 3.55,-20.5C2.779,-20.5 2.779,-20.492 2.009,-20.492C1.237,-20.492 1.237,-20.509 0.467,-20.509C0.205,-20.509 -0.025,-20.293 -0.025,-20.032C-0.025,-19.334 0.005,-19.334 0.005,-18.638C0.005,-17.961 -0.03,-17.941 -0.03,-17.304C-0.03,-16.546 0,-16.566 0,-15.85" style="fill:rgb(25,86,51);fill-rule:nonzero;"/>
        </g>
        <g transform="matrix(1,0,0,1,56.2865,81.8774)">
            <path d="M0,-30.435C0.147,-34.62 0.344,-36.714 0.591,-36.714C0.837,-36.714 1.045,-34.645 1.219,-30.509C1.391,-26.372 1.477,-21.299 1.477,-15.291C1.477,-9.282 1.391,-4.211 1.219,-0.074C1.045,4.063 0.837,6.131 0.591,6.131C0.344,6.131 0.147,4.039 0,-0.147C-0.148,-4.333 -0.222,-9.382 -0.222,-15.291C-0.222,-21.201 -0.148,-26.248 0,-30.435M-4.728,-12.263L-4.728,-1.772C-4.728,0.738 -4.827,3.054 -5.023,5.171C-5.221,7.191 -6.083,9.086 -7.608,10.859C-8.151,11.401 -8.421,11.795 -8.421,12.041C-8.421,12.337 -7.904,12.484 -6.87,12.484L8.199,12.484C8.643,12.484 8.962,12.46 9.16,12.41C9.405,12.362 9.553,12.275 9.603,12.151C9.651,12.029 9.603,11.919 9.455,11.819C8.519,10.835 7.743,9.727 7.128,8.495C6.512,7.265 6.179,6.033 6.131,4.802C6.032,0.764 5.983,-2.339 5.983,-4.506L5.909,-9.973C5.909,-11.203 5.934,-12.213 5.983,-13.001C5.983,-15.513 5.958,-17.359 5.909,-18.542L5.909,-21.792L5.983,-28.588C5.983,-29.032 6.007,-29.966 6.057,-31.395C6.105,-32.823 6.205,-34.203 6.353,-35.532C6.549,-37.649 7.411,-39.545 8.938,-41.22C9.43,-41.86 9.677,-42.254 9.677,-42.402C9.677,-42.599 9.566,-42.722 9.344,-42.771C9.123,-42.82 8.716,-42.845 8.125,-42.845L5.171,-42.919L-0.148,-42.845L-1.773,-42.845C-2.955,-42.893 -4.679,-42.919 -6.944,-42.919C-7.387,-42.919 -7.708,-42.893 -7.904,-42.845C-8.347,-42.698 -8.421,-42.476 -8.125,-42.181C-7.19,-41.195 -6.415,-40.087 -5.799,-38.856C-5.184,-37.624 -4.851,-36.393 -4.802,-35.163C-4.753,-33.192 -4.728,-30.114 -4.728,-25.929L-4.654,-20.389L-4.654,-17.359C-4.703,-16.178 -4.728,-14.478 -4.728,-12.263" style="fill:rgb(25,86,51);fill-rule:nonzero;"/>
        </g>
        <g transform="matrix(1,0,0,1,229.642,4.1594)">
            <path d="M0,15.514C0.281,15.675 0.643,15.755 1.086,15.755C1.488,15.755 1.932,15.656 2.414,15.453C3.139,15.172 3.622,14.69 3.863,14.005C3.983,13.763 4.044,13.482 4.044,13.16C4.044,12.597 3.853,12.103 3.471,11.681C3.088,11.258 2.574,11.047 1.932,11.047C1.126,11.047 0.703,11.349 0.664,11.952C0.664,12.194 0.764,12.375 0.966,12.496C1.126,12.737 1.448,12.758 1.932,12.556C1.932,12.516 1.971,12.496 2.052,12.496C2.294,12.617 2.435,12.698 2.475,12.737C2.555,12.898 2.596,13.06 2.596,13.22C2.555,13.543 2.394,13.804 2.112,14.005C1.83,14.206 1.509,14.307 1.146,14.307C0.784,14.307 0.453,14.216 0.15,14.035C-0.151,13.854 -0.383,13.603 -0.543,13.281C-0.745,12.879 -0.845,12.516 -0.845,12.194C-0.845,11.389 -0.564,10.706 0,10.141C0.442,9.659 1.106,9.317 1.992,9.115C2.596,8.994 3.239,8.934 3.924,8.934C6.297,8.934 8.833,9.659 11.529,11.107L13.4,12.134C15.25,13.22 16.8,14.005 18.048,14.488C20.502,15.333 22.696,15.755 24.628,15.755C24.989,15.755 25.533,15.716 26.257,15.635C27.465,15.514 28.611,15.212 29.698,14.729C30.905,14.166 31.971,13.462 32.897,12.617C33.781,11.812 34.426,11.027 34.829,10.262C35.271,9.538 35.573,8.753 35.734,7.908C35.854,7.425 35.915,6.923 35.915,6.399C35.915,5.957 35.895,5.635 35.854,5.433C35.653,4.266 35.271,3.26 34.708,2.415C34.426,1.932 34.084,1.53 33.682,1.207C33.238,0.806 32.796,0.504 32.354,0.302C32.031,0.141 31.509,-0.02 30.784,-0.181C30.582,-0.22 30.281,-0.241 29.879,-0.241C29.436,-0.241 29.094,-0.22 28.853,-0.181C27.363,0.141 26.217,0.926 25.412,2.173C25.09,2.697 24.889,3.301 24.809,3.984C24.768,4.105 24.748,4.286 24.748,4.528C24.748,5.454 24.989,6.258 25.473,6.942C25.794,7.466 26.257,7.929 26.86,8.33C27.103,8.492 27.424,8.623 27.826,8.723C28.229,8.824 28.611,8.854 28.974,8.813C29.375,8.693 29.638,8.613 29.758,8.572L30.06,8.391C30.382,8.11 30.543,7.847 30.543,7.606L30.543,7.486C30.462,7.084 30.221,6.882 29.818,6.882L29.577,6.942L29.094,7.183C29.013,7.224 28.913,7.244 28.792,7.244C28.27,7.365 27.745,7.204 27.223,6.761C26.86,6.439 26.579,6.057 26.378,5.614C26.257,5.172 26.197,4.79 26.197,4.467C26.197,4.105 26.236,3.824 26.317,3.622C26.519,2.858 27.062,2.214 27.947,1.69C28.47,1.41 29.054,1.268 29.698,1.268C30.141,1.268 30.462,1.308 30.664,1.389C31.146,1.509 31.63,1.731 32.112,2.053C32.756,2.455 33.279,3.018 33.682,3.743C34.164,4.508 34.406,5.413 34.406,6.459C34.406,6.942 34.346,7.405 34.225,7.847C33.942,8.813 33.399,9.76 32.596,10.685C31.669,11.691 30.804,12.416 30,12.858C29.154,13.341 28.45,13.642 27.887,13.763C26.881,14.086 25.714,14.246 24.386,14.246C22.534,14.246 20.623,13.884 18.651,13.16C17.283,12.637 16.207,12.083 15.422,11.5C14.638,10.917 14.125,10.061 13.883,8.934L13.823,8.27C13.823,7.386 14.145,6.62 14.789,5.976C15.311,5.454 15.936,5.192 16.66,5.192C16.981,5.192 17.303,5.252 17.625,5.372C18.027,5.614 18.31,5.856 18.471,6.097C18.591,6.339 18.651,6.58 18.651,6.822C18.651,7.103 18.531,7.365 18.289,7.606C18.048,7.767 17.796,7.798 17.535,7.697C17.272,7.597 17.062,7.546 16.901,7.546C16.74,7.546 16.589,7.606 16.448,7.727C16.307,7.847 16.237,8.009 16.237,8.21L16.237,8.452C16.357,8.733 16.619,8.975 17.022,9.176C17.264,9.257 17.484,9.296 17.686,9.296C18.329,9.296 18.872,9.076 19.315,8.633C19.879,8.19 20.161,7.586 20.161,6.822C20.161,6.701 20.12,6.48 20.04,6.158C19.879,5.675 19.718,5.333 19.557,5.131C19.195,4.528 18.631,4.126 17.867,3.924C17.464,3.803 17.022,3.743 16.539,3.743C16.096,3.743 15.694,3.803 15.332,3.924C14.486,4.165 13.802,4.648 13.279,5.372C12.716,6.178 12.435,7.103 12.435,8.149C12.435,8.753 12.555,9.397 12.797,10.081L12.133,9.779C8.994,8.21 6.217,7.425 3.803,7.425C2.958,7.425 2.333,7.466 1.932,7.546C1.046,7.707 0.251,8.039 -0.453,8.542C-1.157,9.046 -1.67,9.699 -1.992,10.504C-2.233,11.027 -2.354,11.59 -2.354,12.194L-2.354,12.435C-2.274,12.999 -2.134,13.462 -1.932,13.824C-1.61,14.629 -0.966,15.192 0,15.514" style="fill:rgb(25,86,51);fill-rule:nonzero;"/>
        </g>
        <g transform="matrix(1,0,0,1,8.495,81.8774)">
            <path d="M0,-30.435C0.147,-34.62 0.344,-36.714 0.591,-36.714C0.836,-36.714 1.034,-34.62 1.182,-30.435C1.33,-26.248 1.403,-21.201 1.403,-15.291C1.403,-9.382 1.33,-4.333 1.182,-0.147C1.034,4.039 0.836,6.131 0.591,6.131C0.344,6.131 0.147,4.039 0,-0.147C-0.148,-4.333 -0.222,-9.382 -0.222,-15.291C-0.222,-21.201 -0.148,-26.248 0,-30.435M23.49,-30.435C23.638,-34.62 23.833,-36.714 24.081,-36.714C24.326,-36.714 24.524,-34.62 24.671,-30.435C24.819,-26.248 24.893,-21.201 24.893,-15.291C24.893,-9.382 24.819,-4.333 24.671,-0.147C24.524,4.039 24.326,6.131 24.081,6.131C23.833,6.131 23.638,4.039 23.49,-0.147C23.342,-4.333 23.268,-9.382 23.268,-15.291C23.268,-21.201 23.342,-26.248 23.49,-30.435M-4.802,-1.772C-4.802,0.738 -4.901,3.054 -5.097,5.171C-5.294,7.191 -6.157,9.086 -7.683,10.859C-8.225,11.401 -8.495,11.795 -8.495,12.041C-8.495,12.337 -7.978,12.484 -6.944,12.484L8.125,12.484C8.568,12.484 8.888,12.46 9.085,12.41C9.331,12.362 9.479,12.275 9.529,12.151C9.577,12.029 9.529,11.919 9.381,11.819C8.445,10.835 7.669,9.727 7.054,8.495C6.438,7.265 6.105,6.033 6.057,4.802C5.958,0.764 5.909,-2.339 5.909,-4.506L5.835,-9.973C5.835,-11.203 5.859,-12.213 5.909,-13.001L5.909,-13.444C5.909,-13.641 5.983,-13.801 6.131,-13.925C6.279,-14.047 6.451,-14.109 6.648,-14.109L10.858,-14.109C11.597,-14.06 12.655,-14.035 14.035,-14.035L18.023,-14.109C18.22,-14.109 18.38,-14.035 18.503,-13.888C18.626,-13.74 18.688,-13.566 18.688,-13.371L18.688,-1.772C18.688,0.738 18.589,3.054 18.393,5.171C18.195,7.239 17.309,9.136 15.734,10.859C15.241,11.45 14.995,11.845 14.995,12.041C14.995,12.337 15.512,12.484 16.546,12.484L31.615,12.484C32.058,12.484 32.378,12.46 32.575,12.41C32.821,12.362 32.969,12.275 33.019,12.151C33.067,12.029 33.019,11.919 32.871,11.819C31.935,10.835 31.159,9.727 30.544,8.495C29.928,7.265 29.595,6.033 29.547,4.802C29.448,0.764 29.399,-2.339 29.399,-4.506L29.325,-9.973C29.325,-11.203 29.35,-12.213 29.399,-13.001C29.399,-15.611 29.374,-17.532 29.325,-18.764C29.275,-19.551 29.251,-20.732 29.251,-22.309L29.325,-25.781C29.374,-26.372 29.399,-27.307 29.399,-28.588C29.399,-29.032 29.423,-29.966 29.473,-31.395C29.521,-32.823 29.621,-34.203 29.769,-35.532C29.965,-37.649 30.827,-39.545 32.354,-41.22C32.845,-41.86 33.093,-42.254 33.093,-42.402C33.093,-42.599 32.982,-42.722 32.76,-42.771C32.539,-42.82 32.132,-42.845 31.542,-42.845L28.586,-42.919L22.677,-42.845L16.472,-42.919C16.029,-42.919 15.708,-42.893 15.512,-42.845C15.069,-42.698 14.995,-42.476 15.291,-42.181C16.225,-41.146 17.001,-40.025 17.617,-38.819C18.232,-37.612 18.541,-36.393 18.541,-35.163C18.639,-33.192 18.688,-30.114 18.688,-25.929L18.762,-22.383C18.762,-22.185 18.7,-22.025 18.578,-21.903C18.454,-21.779 18.293,-21.718 18.097,-21.718L15.291,-21.718L11.006,-21.718L6.574,-21.718C6.376,-21.718 6.216,-21.792 6.094,-21.939C5.97,-22.088 5.909,-22.26 5.909,-22.457L5.909,-25.855L5.909,-28.588C5.909,-29.032 5.934,-29.966 5.983,-31.395C6.031,-32.823 6.131,-34.203 6.279,-35.532C6.475,-37.649 7.337,-39.545 8.864,-41.22C9.355,-41.86 9.603,-42.254 9.603,-42.402C9.603,-42.599 9.492,-42.722 9.27,-42.771C9.048,-42.82 8.643,-42.845 8.051,-42.845L5.097,-42.919L-0.222,-42.845L-1.847,-42.845C-3.029,-42.893 -4.753,-42.919 -7.018,-42.919C-7.461,-42.919 -7.782,-42.893 -7.978,-42.845C-8.421,-42.698 -8.495,-42.476 -8.2,-42.181C-7.265,-41.195 -6.489,-40.087 -5.873,-38.856C-5.257,-37.624 -4.925,-36.393 -4.875,-35.163C-4.827,-33.192 -4.802,-30.114 -4.802,-25.929L-4.728,-20.389L-4.728,-17.359C-4.777,-16.374 -4.79,-15.278 -4.765,-14.072C-4.741,-12.865 -4.728,-11.967 -4.728,-11.376C-4.679,-10.49 -4.654,-9.209 -4.654,-7.535C-4.654,-6.155 -4.679,-5.098 -4.728,-4.358L-4.802,-1.772Z" style="fill:rgb(25,86,51);fill-rule:nonzero;"/>
        </g>
        <g transform="matrix(1,0,0,1,5.9897,9.4114)">
            <path d="M0,5.01C0.403,5.775 1.047,6.56 1.932,7.364C2.858,8.21 3.924,8.914 5.131,9.477C6.217,9.96 7.364,10.262 8.571,10.383C9.296,10.464 9.839,10.503 10.201,10.503C12.133,10.503 14.327,10.081 16.781,9.236C18.028,8.753 19.578,7.968 21.429,6.882L23.3,5.855C25.996,4.406 28.531,3.682 30.905,3.682C31.59,3.682 32.233,3.742 32.837,3.863C33.723,4.065 34.387,4.406 34.829,4.889C35.393,5.454 35.674,6.137 35.674,6.942C35.674,7.264 35.574,7.627 35.372,8.029C35.212,8.351 34.98,8.602 34.678,8.783C34.376,8.964 34.044,9.055 33.682,9.055C33.32,9.055 32.999,8.954 32.716,8.753C32.435,8.552 32.274,8.291 32.233,7.968C32.233,7.808 32.274,7.646 32.354,7.485C32.395,7.446 32.535,7.364 32.777,7.244C32.857,7.244 32.897,7.264 32.897,7.304C33.38,7.506 33.703,7.485 33.863,7.244C34.065,7.123 34.165,6.942 34.165,6.7C34.125,6.097 33.703,5.795 32.897,5.795C32.254,5.795 31.741,6.006 31.358,6.429C30.976,6.851 30.785,7.344 30.785,7.908C30.785,8.23 30.845,8.511 30.966,8.753C31.207,9.438 31.69,9.92 32.414,10.201C32.897,10.404 33.341,10.503 33.743,10.503C34.186,10.503 34.548,10.423 34.829,10.262C35.794,9.94 36.439,9.377 36.76,8.572C36.962,8.21 37.103,7.747 37.183,7.183L37.183,6.942C37.183,6.338 37.063,5.775 36.821,5.252C36.499,4.447 35.986,3.794 35.282,3.29C34.578,2.787 33.783,2.455 32.897,2.294C32.496,2.214 31.871,2.173 31.026,2.173C28.612,2.173 25.835,2.958 22.696,4.527L22.032,4.829C22.273,4.145 22.395,3.501 22.395,2.897C22.395,1.851 22.113,0.926 21.549,0.12C21.027,-0.604 20.342,-1.087 19.497,-1.328C19.135,-1.449 18.733,-1.509 18.29,-1.509C17.807,-1.509 17.365,-1.449 16.962,-1.328C16.198,-1.126 15.634,-0.724 15.272,-0.121C15.111,0.081 14.95,0.423 14.789,0.906C14.708,1.228 14.668,1.448 14.668,1.57C14.668,2.334 14.95,2.938 15.513,3.381C15.957,3.823 16.5,4.044 17.143,4.044C17.345,4.044 17.565,4.005 17.807,3.924C18.209,3.723 18.471,3.481 18.592,3.199L18.592,2.958C18.592,2.757 18.521,2.595 18.38,2.475C18.24,2.354 18.089,2.294 17.927,2.294C17.768,2.294 17.556,2.344 17.294,2.445C17.032,2.546 16.781,2.515 16.54,2.354C16.298,2.113 16.177,1.851 16.177,1.57C16.177,1.328 16.238,1.087 16.358,0.845C16.52,0.604 16.802,0.362 17.204,0.12C17.526,0 17.848,-0.06 18.169,-0.06C18.893,-0.06 19.518,0.202 20.04,0.724C20.685,1.368 21.006,2.134 21.006,3.018L20.946,3.682C20.704,4.809 20.191,5.665 19.407,6.248C18.622,6.831 17.546,7.385 16.177,7.908C14.206,8.632 12.294,8.994 10.443,8.994C9.115,8.994 7.948,8.834 6.942,8.511C6.379,8.39 5.674,8.089 4.829,7.606C4.025,7.164 3.16,6.439 2.233,5.433C1.429,4.508 0.886,3.561 0.604,2.595C0.483,2.153 0.422,1.69 0.422,1.207C0.422,0.161 0.664,-0.744 1.147,-1.509C1.55,-2.234 2.073,-2.797 2.716,-3.199C3.199,-3.521 3.682,-3.743 4.165,-3.864C4.367,-3.944 4.688,-3.984 5.131,-3.984C5.775,-3.984 6.359,-3.843 6.881,-3.562C7.767,-3.038 8.311,-2.394 8.511,-1.63C8.592,-1.428 8.632,-1.147 8.632,-0.785C8.632,-0.462 8.571,-0.08 8.451,0.362C8.25,0.805 7.968,1.187 7.605,1.509C7.083,1.952 6.56,2.113 6.037,1.992C5.916,1.992 5.815,1.972 5.734,1.931L5.251,1.69L5.01,1.63C4.608,1.63 4.367,1.832 4.286,2.234L4.286,2.354C4.286,2.595 4.447,2.858 4.769,3.139L5.071,3.32C5.191,3.361 5.454,3.441 5.855,3.561C6.217,3.602 6.601,3.572 7.002,3.471C7.405,3.371 7.727,3.239 7.968,3.078C8.571,2.677 9.035,2.214 9.356,1.69C9.839,1.006 10.081,0.202 10.081,-0.724C10.081,-0.966 10.061,-1.147 10.021,-1.268C9.94,-1.951 9.739,-2.555 9.417,-3.079C8.612,-4.326 7.465,-5.111 5.976,-5.433C5.734,-5.472 5.393,-5.493 4.95,-5.493C4.548,-5.493 4.247,-5.472 4.044,-5.433C3.32,-5.272 2.797,-5.111 2.475,-4.95C2.033,-4.748 1.59,-4.447 1.147,-4.045C0.745,-3.722 0.403,-3.32 0.121,-2.837C-0.442,-1.992 -0.824,-0.986 -1.026,0.181C-1.065,0.383 -1.086,0.705 -1.086,1.147C-1.086,1.671 -1.026,2.173 -0.905,2.656C-0.744,3.501 -0.442,4.286 0,5.01" style="fill:rgb(25,86,51);fill-rule:nonzero;"/>
        </g>
        <g transform="matrix(1,0,0,1,250.04,54.3364)">
            <path d="M0,24.586L-0.073,26.803L-0.221,30.422C-0.369,32.54 -0.517,33.599 -0.665,33.599C-0.812,33.599 -0.96,32.54 -1.107,30.422C-1.107,29.881 -1.157,28.675 -1.256,26.803L-1.329,24.586L-1.403,22.223L-2.216,20.006L-3.176,17.494L-5.097,12.176C-7.018,6.809 -8.631,2.081 -9.935,-2.008C-11.24,-6.095 -11.893,-8.435 -11.893,-9.025C-11.893,-9.764 -11.068,-8.077 -9.418,-3.965C-7.769,0.148 -5.812,5.331 -3.545,11.585L-1.625,16.978L0.074,22.001L0,24.586ZM10.268,-15.304L5.393,-15.378L4.506,-15.378C4.309,-15.329 4.223,-15.23 4.248,-15.082C4.272,-14.935 4.383,-14.762 4.58,-14.565C5.762,-13.679 6.611,-12.878 7.129,-12.165C7.646,-11.451 7.904,-10.675 7.904,-9.838C7.904,-9.247 7.805,-8.68 7.608,-8.139C6.87,-5.282 6.304,-3.263 5.91,-2.081C5.515,-1.096 5.023,0.43 4.433,2.499L3.842,4.345L2.438,8.408C2.24,9.099 2.068,9.615 1.921,9.96C1.773,10.551 1.6,10.846 1.404,10.846C1.157,10.846 0.936,10.526 0.739,9.886L-1.034,5.306C-1.92,2.942 -2.561,1.145 -2.954,-0.087L-4.506,-4.667C-4.703,-5.258 -4.888,-5.836 -5.06,-6.403C-5.232,-6.968 -5.392,-7.498 -5.54,-7.991C-5.59,-8.139 -5.663,-8.421 -5.762,-8.841C-5.86,-9.258 -5.909,-9.641 -5.909,-9.986C-5.909,-10.429 -5.835,-10.822 -5.687,-11.167C-5.344,-11.759 -4.888,-12.361 -4.321,-12.977C-3.756,-13.593 -3.176,-14.171 -2.585,-14.713C-2.487,-14.811 -2.45,-14.922 -2.475,-15.046C-2.5,-15.168 -2.61,-15.255 -2.807,-15.304C-3.004,-15.352 -3.349,-15.378 -3.841,-15.378L-4.432,-15.378L-7.903,-15.378L-10.415,-15.378L-14.773,-15.378L-20.535,-15.378C-21.027,-15.378 -21.373,-15.352 -21.569,-15.304C-21.816,-15.255 -21.951,-15.181 -21.976,-15.082C-22.001,-14.983 -21.964,-14.861 -21.864,-14.713L-20.461,-13.31C-19.574,-12.423 -18.91,-11.548 -18.467,-10.687C-18.023,-9.825 -17.384,-8.213 -16.546,-5.849C-16.055,-4.617 -15.808,-3.953 -15.808,-3.854L-13,3.533L-11.006,8.999C-10.662,9.837 -10.354,10.674 -10.083,11.511C-9.813,12.349 -9.505,13.186 -9.159,14.023L-7.608,18.603C-7.312,19.293 -6.895,20.475 -6.353,22.148C-6.205,22.493 -6.131,22.937 -6.131,23.479L-6.131,25.769C-6.131,28.232 -6.229,30.522 -6.427,32.638C-6.673,34.756 -7.56,36.652 -9.085,38.326C-9.628,38.967 -9.897,39.36 -9.897,39.508C-9.897,39.706 -9.775,39.829 -9.528,39.878C-9.283,39.927 -8.863,39.951 -8.272,39.951L-5.318,40.025L0.739,39.951L7.018,40.025C7.51,40.025 7.854,40.001 8.052,39.951C8.495,39.804 8.568,39.582 8.273,39.286C7.338,38.302 6.562,37.194 5.946,35.962C5.33,34.732 4.998,33.5 4.949,32.269C4.851,28.329 4.802,25.276 4.802,23.108C4.802,22.814 4.851,22.37 4.949,21.779L5.836,19.046C6.18,18.159 6.574,17.003 7.018,15.574C7.313,14.737 7.854,13.063 8.643,10.551C8.791,10.107 8.938,9.664 9.086,9.221C9.233,8.777 9.382,8.334 9.529,7.892L10.194,5.675C10.292,5.429 10.464,4.862 10.711,3.976L13.592,-4.445C14.479,-7.203 15.241,-9.197 15.882,-10.429C16.275,-11.266 16.719,-11.967 17.212,-12.534C17.703,-13.1 18.319,-13.654 19.058,-14.196C19.402,-14.442 19.575,-14.664 19.575,-14.861C19.575,-15.205 19.279,-15.378 18.688,-15.378C18.196,-15.378 17.592,-15.39 16.879,-15.415C16.165,-15.439 15.339,-15.427 14.404,-15.378L10.268,-15.304Z" style="fill:rgb(25,86,51);fill-rule:nonzero;"/>
        </g>
        <g transform="matrix(1,0,0,1,77.4862,85.7185)">
            <path d="M0,-38.339C0.344,-38.93 0.652,-39.385 0.923,-39.706C1.193,-40.025 1.354,-40.16 1.403,-40.112C1.452,-40.062 1.378,-39.828 1.182,-39.41C0.984,-38.991 0.787,-38.561 0.591,-38.117C0,-36.64 -0.296,-35.089 -0.296,-33.464C-0.296,-31.789 0.024,-30.237 0.665,-28.81C1.304,-27.43 2.142,-26.224 3.176,-25.19C4.161,-24.155 5.466,-23.146 7.091,-22.161C8.174,-21.521 9.824,-20.732 12.041,-19.797C14.552,-18.713 16.25,-17.925 17.137,-17.434C18.958,-16.35 20.362,-15.192 21.348,-13.961C22.48,-12.582 23.243,-11.129 23.638,-9.603C23.981,-8.519 24.154,-7.387 24.154,-6.205C24.154,-4.825 23.957,-3.569 23.563,-2.438C23.169,-1.304 22.677,-0.369 22.086,0.37C21.643,0.862 21.248,1.232 20.904,1.477C20.56,1.724 20.387,1.848 20.387,1.848C20.387,1.848 20.362,1.823 20.313,1.773C20.854,1.035 21.274,0.443 21.569,0C22.504,-1.673 22.973,-3.52 22.973,-5.54C22.973,-6.672 22.775,-7.903 22.382,-9.234C21.938,-10.514 21.224,-11.77 20.24,-13.001C19.304,-14.035 17.998,-15.044 16.325,-16.029C15.191,-16.669 13.542,-17.434 11.375,-18.319C9.159,-19.255 7.46,-20.068 6.279,-20.758C4.506,-21.84 3.103,-22.974 2.068,-24.155C0.886,-25.386 0,-26.765 -0.591,-28.292C-1.133,-29.671 -1.404,-31.148 -1.404,-32.725C-1.404,-34.793 -0.936,-36.664 0,-38.339M-5.836,-30.213C-5.836,-26.815 -4.777,-23.712 -2.659,-20.905C-1.232,-19.083 0.591,-17.457 2.807,-16.029C4.825,-14.748 7.287,-13.542 10.193,-12.41C12.458,-11.524 14.342,-10.366 15.844,-8.939C17.346,-7.509 18.098,-5.762 18.098,-3.693C18.098,-1.92 17.42,-0.528 16.066,0.48C14.711,1.49 13.099,1.995 11.228,1.995C9.996,1.995 8.777,1.773 7.571,1.33C6.364,0.887 5.392,0.296 4.653,-0.443C3.619,-1.477 2.683,-2.831 1.847,-4.506C1.6,-5.047 1.28,-5.86 0.886,-6.943C0.739,-7.287 0.578,-7.719 0.406,-8.236C0.233,-8.753 0.048,-9.036 -0.148,-9.086C-0.296,-9.134 -0.641,-9.159 -1.182,-9.159L-3.472,-9.159C-4.162,-9.159 -4.629,-9.11 -4.875,-9.012C-5.171,-8.912 -5.318,-8.445 -5.318,-7.609L-5.318,7.757C-5.318,8.595 -5.146,9.013 -4.801,9.013C-4.408,9.013 -4.015,8.741 -3.62,8.2C-2.242,6.625 -1.034,5.836 0,5.836C0.787,5.836 1.895,6.305 3.324,7.24C5.54,8.668 8.322,9.382 11.671,9.382C15.167,9.382 18.171,8.691 20.683,7.313C24.129,5.442 26.469,2.512 27.7,-1.477C28.439,-3.644 28.808,-5.934 28.808,-8.347C28.808,-10.611 28.414,-12.754 27.626,-14.774C26.838,-16.793 25.656,-18.516 24.081,-19.945C22.799,-21.127 21.359,-22.111 19.759,-22.9C18.159,-23.687 16.029,-24.599 13.37,-25.633C11.302,-26.42 9.64,-27.159 8.384,-27.849C7.128,-28.538 6.105,-29.449 5.318,-30.582C4.53,-31.665 4.137,-32.873 4.137,-34.202C4.137,-35.187 4.37,-36.123 4.838,-37.009C5.306,-37.896 5.983,-38.634 6.87,-39.225C7.952,-39.964 9.405,-40.333 11.228,-40.333C12.458,-40.333 13.64,-40.112 14.773,-39.669C15.905,-39.225 16.842,-38.634 17.581,-37.896C18.712,-36.762 19.624,-35.384 20.313,-33.759C20.56,-33.266 20.879,-32.478 21.274,-31.395C21.421,-30.952 21.581,-30.496 21.754,-30.028C21.926,-29.56 22.086,-29.301 22.234,-29.253C22.627,-29.153 22.973,-29.105 23.268,-29.105L25.484,-29.179C26.173,-29.179 26.641,-29.228 26.888,-29.327C27.183,-29.425 27.331,-29.892 27.331,-30.73L27.331,-31.026C27.331,-31.37 27.318,-31.801 27.294,-32.318C27.269,-32.836 27.281,-33.438 27.331,-34.128L27.257,-39.521L27.331,-46.095C27.331,-46.932 27.158,-47.351 26.814,-47.351C26.469,-47.351 26.075,-47.08 25.632,-46.539C24.351,-44.962 23.194,-44.174 22.16,-44.174C21.667,-44.174 21.187,-44.285 20.72,-44.507C20.251,-44.729 19.648,-45.086 18.91,-45.578C16.645,-47.006 13.936,-47.721 10.785,-47.721C7.583,-47.721 4.678,-47.03 2.068,-45.652C-0.542,-44.223 -2.512,-42.204 -3.841,-39.595C-5.171,-36.886 -5.836,-33.759 -5.836,-30.213" style="fill:rgb(25,86,51);fill-rule:nonzero;"/>
        </g>
        <g transform="matrix(1,0,0,1,154.864,14.6923)">
            <path d="M0,-3.287C0.053,-3.767 0.173,-4.276 0.3,-4.796C0.42,-5.285 0.554,-5.787 0.765,-6.26C0.972,-6.728 1.261,-7.155 1.58,-7.558C1.894,-7.954 2.248,-8.318 2.691,-8.605C3.098,-8.87 3.561,-9.084 4.093,-9.222C4.55,-9.339 5.056,-9.391 5.617,-9.391C6.179,-9.391 6.69,-9.355 7.148,-9.239C7.684,-9.103 8.143,-8.871 8.551,-8.609C8.996,-8.322 9.367,-7.97 9.683,-7.576C10.006,-7.173 10.282,-6.736 10.493,-6.268C10.706,-5.794 10.856,-5.296 10.978,-4.805C11.105,-4.284 11.184,-3.768 11.236,-3.286C11.31,-2.616 11.312,-2.015 11.312,-1.561C11.312,-1.197 11.31,-0.722 11.249,-0.185C11.195,0.292 11.096,0.815 10.964,1.354C10.844,1.847 10.676,2.347 10.465,2.833C10.259,3.31 10.013,3.773 9.696,4.19C9.385,4.6 9.02,4.974 8.579,5.277C8.171,5.559 7.706,5.798 7.169,5.946C6.706,6.073 6.187,6.103 5.616,6.103C5.047,6.103 4.533,6.057 4.071,5.93C3.537,5.781 3.072,5.551 2.666,5.267C2.229,4.963 1.88,4.58 1.571,4.169C1.258,3.751 1.003,3.297 0.799,2.821C0.59,2.336 0.397,1.843 0.278,1.351C0.148,0.814 0.064,0.287 0.012,-0.189C-0.048,-0.712 -0.053,-1.178 -0.053,-1.535C-0.053,-1.987 -0.074,-2.603 0,-3.287M-5.072,1.442C-4.98,1.976 -4.837,2.491 -4.698,2.998C-4.555,3.521 -4.41,4.035 -4.218,4.524C-4.018,5.027 -3.795,5.514 -3.544,5.976C-3.285,6.451 -2.982,6.891 -2.669,7.316C-2.35,7.749 -2.01,8.161 -1.635,8.535C-1.256,8.912 -0.852,9.262 -0.416,9.572C0.016,9.88 0.472,10.16 0.957,10.395C1.429,10.624 1.937,10.792 2.459,10.945C2.958,11.092 3.476,11.218 4.02,11.292C4.532,11.361 5.064,11.406 5.616,11.406L5.617,11.406C6.171,11.406 6.704,11.361 7.218,11.293C7.764,11.219 8.284,11.103 8.784,10.957C9.309,10.803 9.801,10.598 10.273,10.371C10.761,10.137 11.226,9.877 11.658,9.57C12.095,9.26 12.514,8.926 12.894,8.55C13.271,8.176 13.614,7.764 13.935,7.331C14.249,6.907 14.528,6.451 14.789,5.976C15.041,5.513 15.254,5.025 15.453,4.52C15.647,4.031 15.831,3.53 15.975,3.006C16.114,2.499 16.263,1.983 16.355,1.448C16.444,0.929 16.499,0.395 16.544,-0.145C16.587,-0.671 16.588,-1.207 16.588,-1.748C16.588,-2.287 16.563,-2.816 16.521,-3.335C16.478,-3.874 16.429,-4.402 16.34,-4.915C16.248,-5.447 16.107,-5.958 15.968,-6.459C15.822,-6.98 15.669,-7.487 15.474,-7.97C15.271,-8.469 15.041,-8.947 14.786,-9.401C14.523,-9.871 14.234,-10.315 13.917,-10.731C13.593,-11.156 13.256,-11.568 12.876,-11.933C12.493,-12.3 12.066,-12.618 11.629,-12.917C11.195,-13.214 10.731,-13.469 10.245,-13.694C9.772,-13.913 9.282,-14.113 8.761,-14.26C8.264,-14.4 7.74,-14.477 7.199,-14.547C6.69,-14.613 6.164,-14.693 5.616,-14.693C5.069,-14.693 4.542,-14.633 4.033,-14.567C3.493,-14.497 2.974,-14.396 2.478,-14.255C1.957,-14.108 1.451,-13.944 0.98,-13.724C0.495,-13.498 0.035,-13.229 -0.396,-12.932C-0.834,-12.631 -1.22,-12.266 -1.601,-11.899C-1.979,-11.534 -2.328,-11.139 -2.65,-10.714C-2.967,-10.297 -3.275,-9.868 -3.536,-9.398C-3.789,-8.943 -3.989,-8.453 -4.19,-7.953C-4.384,-7.47 -4.59,-6.981 -4.733,-6.462C-4.872,-5.961 -4.962,-5.438 -5.054,-4.907C-5.142,-4.394 -5.245,-3.872 -5.289,-3.336C-5.331,-2.817 -5.332,-2.285 -5.332,-1.747C-5.332,-1.206 -5.304,-0.673 -5.262,-0.148C-5.217,0.391 -5.162,0.923 -5.072,1.442" style="fill:rgb(25,86,51);fill-rule:nonzero;"/>
        </g>
    </g>
</svg>
